<?xml version="1.0" encoding="UTF-8"?>
<svg version="1.1" xmlns="http://www.w3.org/2000/svg" width="256" height="256">
<path d="M0 0 C3.48701672 1.49232286 5.71827786 3.48558151 8.37109375 6.17578125 C9.60375977 7.41811523 9.60375977 7.41811523 10.86132812 8.68554688 C12.1365332 9.98588867 12.1365332 9.98588867 13.4375 11.3125 C14.28376953 12.16779297 15.13003906 13.02308594 16.00195312 13.90429688 C17.58751416 15.50724073 19.17100627 17.11223573 20.75170898 18.7199707 C23.15622452 21.15842988 25.5763807 23.58053112 28 26 C52 50 52 50 54.66625977 52.66845703 C56.40636962 54.40692853 58.15040425 56.14068509 59.90234375 57.8671875 C69.03261828 66.90378006 69.03261828 66.90378006 72.25 70.8125 C74.88272892 74.0104913 77.90418582 76.57436908 81.0625 79.2421875 C82.9227833 80.92994453 84.43767943 82.66360842 86 84.625 C89.86461404 89.31322032 94.94589554 92.91851173 101 94 C107.58683558 94.39948368 113.82988155 94.4943032 120 92 C121.70921589 90.4587688 121.70921589 90.4587688 123 89 C123.99 89 124.98 89 126 89 C126.268125 88.360625 126.53625 87.72125 126.8125 87.0625 C128 85 128 85 131 84 C132.20882096 81.99983534 132.20882096 81.99983534 133 80 C133.66 80 134.32 80 135 80 C135.268125 79.360625 135.53625 78.72125 135.8125 78.0625 C137 76 137 76 140 75 C140.33 74.34 140.66 73.68 141 73 C142 71 142 71 145 70 C145.33 69.34 145.66 68.68 146 68 C147 66 147 66 150 65 C150.68620031 63.67661368 151.34786461 62.34050052 152 61 C154.87571759 57.24559093 157.68328698 54.37160935 161.39453125 51.4140625 C163.96991028 49.1457238 166.11520335 46.52397607 168.33984375 43.91796875 C170.44406092 41.48697904 172.69707651 39.24232024 175 37 C175.86625 36.113125 176.7325 35.22625 177.625 34.3125 C182.05405405 30 182.05405405 30 186 30 C186.00496522 30.83873878 186.00496522 30.83873878 186.01003075 31.69442177 C186.09159179 45.36051288 186.18390939 59.02649587 186.28752708 72.69243813 C186.33731891 79.30144812 186.38364967 85.91044344 186.421875 92.51953125 C186.45894493 98.90627233 186.505362 105.2928853 186.55806351 111.67951584 C186.57649272 114.10733145 186.59164224 116.53517441 186.60334396 118.96303177 C186.66423497 131.16777782 186.84117579 142.9623119 189 155 C189.40816809 158.39124543 189.74235712 161.78693268 190.0625 165.1875 C190.1860083 166.45932129 190.1860083 166.45932129 190.31201172 167.75683594 C190.89941081 173.83554411 191.46974527 179.91602463 192 186 C187.64254738 185.50483493 185.39235881 184.693932 182 182 C179.37060243 180.58885613 176.69194881 179.2871697 174 178 C174 177.34 174 176.68 174 176 C173.27425781 175.88785156 172.54851562 175.77570313 171.80078125 175.66015625 C168.87436007 174.97038613 166.77712191 173.94489186 164.1875 172.4375 C163.39730469 171.98246094 162.60710937 171.52742187 161.79296875 171.05859375 C161.20128906 170.70925781 160.60960937 170.35992187 160 170 C160 169.34 160 168.68 160 168 C159.0925 167.71125 158.185 167.4225 157.25 167.125 C154.67797092 166.23468224 152.38653234 165.28505587 150 164 C150 163.34 150 162.68 150 162 C149.39994141 162.26844727 148.79988281 162.53689453 148.18164062 162.81347656 C141.97568614 165.46048654 136.18312358 166.93617238 129.5 167.75 C128.54295166 167.87068848 127.58590332 167.99137695 126.59985352 168.11572266 C98.22400182 171.44795871 73.20059772 166.25885106 48 153 C46.66878978 152.32910391 45.33670021 151.65988998 44 151 C44 150.34 44 149.68 44 149 C43.26652344 148.73832031 42.53304687 148.47664062 41.77734375 148.20703125 C38.96184126 146.98341624 36.94768725 145.60500348 34.5625 143.6875 C33.40621094 142.759375 33.40621094 142.759375 32.2265625 141.8125 C31.49179687 141.214375 30.75703125 140.61625 30 140 C29.05253906 139.2575 29.05253906 139.2575 28.0859375 138.5 C26.68297668 137.38295063 25.33468568 136.19779484 24 135 C24 134.34 24 133.68 24 133 C23.34 133 22.68 133 22 133 C21.7525 132.21625 21.505 131.4325 21.25 130.625 C20.29439052 127.89757773 20.29439052 127.89757773 18.15625 127.1484375 C15.27972999 125.61637793 14.07316875 123.68021389 12.25 121 C11.32960938 119.6696875 11.32960938 119.6696875 10.390625 118.3125 C9 116 9 116 9 114 C8.34 114 7.68 114 7 114 C4.633794 109.31927697 2.28311372 104.63146527 -0.04296875 99.93066406 C-0.78301177 98.43774055 -1.53057992 96.94854589 -2.28125 95.4609375 C-9.3636861 80.66778468 -10.17723144 65.12210368 -10.125 49 C-10.12886719 47.80632812 -10.13273438 46.61265625 -10.13671875 45.3828125 C-10.12533343 34.97663404 -9.74814443 25.16111301 -6.625 15.1875 C-6.41617187 14.47658203 -6.20734375 13.76566406 -5.9921875 13.03320312 C-2.93330919 2.93330919 -2.93330919 2.93330919 0 0 Z " fill="#4FC1B1" transform="translate(19,70)"/>
<path d="M0 0 C1.34056961 0.00864075 1.34056961 0.00864075 2.70822144 0.01745605 C18.32681406 0.13552336 32.7002965 1.30832684 46.70703125 8.71240234 C48.60416103 9.64549065 50.49364322 10.33894603 52.5 11 C56.55639548 12.45327555 59.87308682 14.65839184 63.38671875 17.125 C64.90367589 18.17080169 66.46189672 19.15813296 68.046875 20.09765625 C75.08066399 24.36817099 81.11208166 29.98375937 86.9375 35.75 C87.43709229 36.24040771 87.93668457 36.73081543 88.45141602 37.23608398 C91.63857369 40.45012843 94.12252845 43.82406654 96.5625 47.625 C97.14 48.181875 97.7175 48.73875 98.3125 49.3125 C99.5625 50.625 99.5625 50.625 99.5625 53.625 C100.2225 53.625 100.8825 53.625 101.5625 53.625 C103.25 55.875 103.25 55.875 104.5625 58.625 C104.14453125 60.796875 104.14453125 60.796875 103.5625 62.625 C102.45326172 62.61863525 101.34402344 62.61227051 100.20117188 62.60571289 C96.05577295 62.59120002 91.91174673 62.62276724 87.76660156 62.66772461 C85.97823781 62.68080311 84.18973866 62.6816549 82.40136719 62.66967773 C70.76974718 62.13517614 70.76974718 62.13517614 60.65625 66.87109375 C59.58468246 68.08804752 58.54753878 69.33700463 57.5625 70.625 C56.72589844 71.44226563 55.88929688 72.25953125 55.02734375 73.1015625 C54.21394531 73.93429688 53.40054688 74.76703125 52.5625 75.625 C51.37787867 76.80106935 50.19153331 77.9754035 49.00390625 79.1484375 C47.71089114 80.43224498 46.41792332 81.71610008 45.125 83 C44.48240234 83.63421875 43.83980469 84.2684375 43.17773438 84.921875 C39.55172067 88.52948254 36.14454887 92.22910351 32.85180664 96.14208984 C31.35882275 97.85926162 29.76549645 99.31630219 28 100.75 C19.71342835 107.80952161 11.94314644 115.71739361 4.9296875 124.0390625 C4.25292969 124.82410156 4.25292969 124.82410156 3.5625 125.625 C2.88574219 126.50285156 2.88574219 126.50285156 2.1953125 127.3984375 C0.5625 128.625 0.5625 128.625 -1.80834961 128.41064453 C-4.7985636 127.51710673 -5.99764141 126.51943178 -8.13671875 124.28125 C-8.78833984 123.61222656 -9.43996094 122.94320312 -10.11132812 122.25390625 C-10.77583984 121.55136719 -11.44035156 120.84882812 -12.125 120.125 C-13.46019817 118.73761581 -14.79734483 117.35210337 -16.13671875 115.96875 C-16.72283936 115.35193359 -17.30895996 114.73511719 -17.9128418 114.09960938 C-19.38918868 112.52400763 -19.38918868 112.52400763 -21.4375 111.625 C-21.73140625 111.01269531 -22.0253125 110.40039062 -22.328125 109.76953125 C-23.61646372 107.27904549 -25.01893343 106.07340968 -27.1875 104.3125 C-29.85949184 102.0586076 -32.22454382 99.83039973 -34.4375 97.125 C-36.57036901 94.52972037 -38.8106337 92.35810564 -41.375 90.1875 C-44.84329647 87.24570014 -47.72067936 84.06356472 -50.65234375 80.59765625 C-53.0674387 77.92889706 -55.76609412 75.68240108 -58.51171875 73.36328125 C-61.00863611 71.10947146 -63.10854215 68.62699777 -65.2109375 66.0078125 C-67.31944098 63.63070985 -68.55935357 63.61752743 -71.78564453 63.41967773 C-73.21373392 63.37782428 -74.64198075 63.34114276 -76.0703125 63.30859375 C-77.19806595 63.2774221 -77.19806595 63.2774221 -78.34860229 63.24562073 C-80.75314085 63.18017295 -83.15778967 63.12126262 -85.5625 63.0625 C-87.19141771 63.01931023 -88.82032422 62.97569579 -90.44921875 62.93164062 C-94.44519915 62.82449649 -98.44129059 62.72321567 -102.4375 62.625 C-103.59570312 57.9296875 -103.59570312 57.9296875 -102.171875 55.1875 C-99.94743927 52.31500031 -97.71935145 49.45235656 -95.4375 46.625 C-95.01855469 46.09245605 -94.59960938 45.55991211 -94.16796875 45.01123047 C-87.67377278 36.77331345 -80.71866322 30.06722296 -72.4375 23.625 C-71.55835937 22.87347656 -70.67921875 22.12195313 -69.7734375 21.34765625 C-67.4375 19.625 -67.4375 19.625 -64.4375 19.625 C-64.4375 18.965 -64.4375 18.305 -64.4375 17.625 C-59.7514628 15.25610757 -55.05713013 12.90552521 -50.35058594 10.57763672 C-48.90645924 9.85852207 -47.47064649 9.12267709 -46.0390625 8.37890625 C-31.57374282 1.26433065 -15.85868658 -0.23565213 0 0 Z " fill="#4FC1B1" transform="translate(127.4375,-0.625)"/>
<path d="M0 0 C0.66 0 1.32 0 2 0 C2.714985 2.14495501 3.4287819 4.2902034 4.13671875 6.4375 C4.67971333 8.04928482 5.24213365 9.65478395 5.83203125 11.25 C9.38602922 21.05413234 9.16262851 31.06123509 9.13037109 41.39477539 C9.1250182 43.43057735 9.13034386 45.46615788 9.13671875 47.50195312 C9.12624742 58.20889222 8.95289162 68.3838097 5.625 78.625 C5.41617188 79.33011719 5.20734375 80.03523438 4.9921875 80.76171875 C4.3515625 82.7890625 4.3515625 82.7890625 3 86 C1.515 86.495 1.515 86.495 0 87 C0 58.29 0 29.58 0 0 Z " fill="#4FC1B1" transform="translate(238,75)"/>
</svg>
