<?xml version="1.0" encoding="UTF-8"?>
<svg version="1.1" xmlns="http://www.w3.org/2000/svg" width="225" height="225">
<path d="M0 0 C74.25 0 148.5 0 225 0 C225 74.25 225 148.5 225 225 C150.75 225 76.5 225 0 225 C0 150.75 0 76.5 0 0 Z " fill="#FDFDFD" transform="translate(0,0)"/>
<path d="M0 0 C6.0702392 4.96759275 10.88174068 11.50878264 12.5234375 19.26953125 C13.05814338 27.70854938 11.96341922 35.23585998 9.8984375 43.39453125 C9.3447006 45.68350875 8.79132558 47.97257382 8.23828125 50.26171875 C7.9532373 51.42155273 7.66819336 52.58138672 7.37451172 53.77636719 C6.01766723 59.34542367 4.74265605 64.9328102 3.4609375 70.51953125 C3.21134277 71.59106445 2.96174805 72.66259766 2.70458984 73.76660156 C1.49705272 78.95798586 0.32758855 84.15188932 -0.75390625 89.37109375 C-4.12302556 105.45207696 -8.61437074 119.10767646 -22.3515625 129.33203125 C-25.4765625 131.26953125 -25.4765625 131.26953125 -27.4765625 131.26953125 C-26.16235099 121.13493867 -23.97971015 111.29775075 -21.62176514 101.36499023 C-20.96184941 98.58249437 -20.30942127 95.79832941 -19.65869141 93.01367188 C-17.56956726 84.0861537 -15.45567482 75.16490332 -13.30865479 66.25112915 C-12.37333154 62.36047031 -11.44720752 58.46765056 -10.5222168 54.57452393 C-10.07947537 52.7227704 -9.63213726 50.87210914 -9.17993164 49.02264404 C-4.62863277 33.35836196 -4.62863277 33.35836196 -7.1015625 17.89453125 C-15.40771669 8.71404504 -25.24342931 4.80547276 -37.56494141 4.16015625 C-54.71846039 3.57106781 -74.6894626 3.53363462 -88.7578125 14.609375 C-93.49003151 19.18026837 -95.40097986 23.23715267 -96.984375 29.4765625 C-97.19417999 30.26787064 -97.40398499 31.05917877 -97.62014771 31.87446594 C-99.7859892 40.17960144 -101.59579104 48.55753637 -103.3515625 56.95703125 C-104.03359499 60.18420433 -104.71946459 63.41055415 -105.40625 66.63671875 C-105.66230011 67.84256371 -105.66230011 67.84256371 -105.92352295 69.07276917 C-107.07886278 74.48696665 -108.29215714 79.88536379 -109.546875 85.27734375 C-109.71105927 85.98637344 -109.87524353 86.69540314 -110.04440308 87.42591858 C-110.81732907 90.76076827 -111.5986307 94.09300914 -112.39404297 97.42260742 C-114.99453471 107.69764706 -114.99453471 107.69764706 -113.4765625 117.95703125 C-108.44046461 123.78001944 -101.53654617 126.76997872 -93.94677734 127.51928711 C-91.14423609 127.68688177 -88.34507127 127.80246808 -85.5390625 127.89453125 C-84.56904297 127.93320313 -83.59902344 127.971875 -82.59960938 128.01171875 C-80.22544174 128.10528201 -77.85126758 128.19102333 -75.4765625 128.26953125 C-80.13153525 132.924504 -88.88982817 132.52924412 -95.16333008 132.59887695 C-96.02982178 132.59331787 -96.89631348 132.58775879 -97.7890625 132.58203125 C-99.15937622 132.57465942 -99.15937622 132.57465942 -100.55737305 132.56713867 C-112.01327219 132.36974534 -122.31236338 130.65279871 -131.125 122.80078125 C-134.13082574 119.39533706 -133.67506052 115.56681089 -133.4765625 111.26953125 C-132.98972266 108.18448795 -132.30728605 105.15578411 -131.60546875 102.11328125 C-131.40779907 101.22941238 -131.21012939 100.34554352 -131.00646973 99.43489075 C-130.3580357 96.54472091 -129.69882365 93.65713454 -129.0390625 90.76953125 C-128.58534333 88.76077656 -128.13214297 86.75190463 -127.67944336 84.74291992 C-126.51633093 79.59179549 -125.34326551 74.44299399 -124.16699219 69.29486084 C-123.49825699 66.36459234 -122.83251858 63.43366165 -122.16796875 60.50244141 C-121.15406431 56.03123012 -120.13587284 51.56102242 -119.11325073 47.09179688 C-118.73448349 45.43621262 -118.356476 43.78045433 -117.97927856 42.12451172 C-110.42335543 9.01423925 -110.42335543 9.01423925 -94.6640625 -1.41796875 C-67.95700355 -16.83591832 -25.56239764 -17.86142296 0 0 Z " fill="#D61B20" transform="translate(184.4765625,41.73046875)"/>
<path d="M0 0 C-0.76418106 3.93882047 -1.5375896 7.87577753 -2.3125 11.8125 C-2.52583984 12.91271484 -2.73917969 14.01292969 -2.95898438 15.14648438 C-4.16872401 21.26740582 -5.56093145 27.27161258 -7.25219727 33.27661133 C-8.58454279 38.12881974 -9.69039306 43.03318114 -10.8125 47.9375 C-11.06749268 49.04488525 -11.32248535 50.15227051 -11.58520508 51.29321289 C-13.79838127 60.97170947 -15.8841804 70.67635088 -17.9074707 80.39624023 C-19.20454121 86.56310958 -20.6541715 92.63669371 -22.39990234 98.69287109 C-23.94020517 104.61470255 -23.14832109 108.91318069 -20.2578125 114.1484375 C-15.36932598 121.34453257 -6.90592559 124.86491535 1.31713867 126.60083008 C6.60747046 127.38795288 11.91265349 127.28578109 17.25 127.25 C18.38824219 127.25773437 19.52648437 127.26546875 20.69921875 127.2734375 C35.88601675 127.23896123 51.72449287 125.53348353 63.4140625 114.94140625 C67.49613771 109.94438315 68.86292892 104.24295983 70.234375 98.09765625 C70.4333136 97.23493607 70.6322522 96.37221588 70.83721924 95.48335266 C71.48217583 92.67802983 72.11621391 89.87036553 72.75 87.0625 C73.19337485 85.12371522 73.63739001 83.18507677 74.08203125 81.24658203 C75.19039329 76.40544307 76.28960563 71.56228641 77.38500977 66.71820068 C77.96020838 64.17587534 78.53723796 61.63397569 79.11523438 59.09228516 C80.86934782 51.37819358 82.61657817 43.66262028 84.34130859 35.94189453 C84.7622633 34.06179661 85.18672263 32.1824777 85.61572266 30.30419922 C87.81146495 20.71105542 87.81146495 20.71105542 84.6015625 11.640625 C77.53439377 4.4010863 66.63874844 3.86742256 57.1875 3.4375 C56.30384766 3.39431641 55.42019531 3.35113281 54.50976562 3.30664062 C52.34000377 3.20108464 50.1700209 3.10008929 48 3 C59.95799665 -3.40606963 79.91917013 -1.59681677 92.63671875 2.0859375 C97.936191 4.13565073 102.14682966 6.95208324 105 12 C106.31756222 20.81282588 103.49387102 29.68901774 101.4375 38.1875 C101.07058743 39.73979084 100.704884 41.29236793 100.34033203 42.84521484 C99.59434228 46.02033371 98.84373488 49.19430844 98.09033203 52.36767578 C96.76097749 57.98912593 95.49652441 63.62450008 94.23828125 69.26220703 C93.11127026 74.30507123 91.96285678 79.34298541 90.81591797 84.38134766 C90.00831867 87.96310611 89.22397243 91.54941952 88.44140625 95.13671875 C87.94089701 97.36215763 87.43963443 99.58742726 86.9375 101.8125 C86.72851074 102.8020166 86.51952148 103.7915332 86.30419922 104.81103516 C84.06152875 114.5595121 79.20875284 123.97660566 71 130 C60.9497588 136.26433688 50.55094445 139.66873755 39 142 C37.87863647 142.26151855 37.87863647 142.26151855 36.73461914 142.52832031 C31.33364934 143.45990443 25.81636661 143.26562823 20.34765625 143.29516602 C18.88368994 143.30658315 17.41976177 143.32686832 15.95605469 143.35668945 C-2.00315655 143.72149867 -18.34626975 140.07825774 -31.796875 127.41015625 C-38.57174282 119.99864305 -40.36873743 112.73101197 -40.28125 102.91601562 C-39.7270611 95.19970487 -37.79375066 87.75685682 -36 80.25 C-35.58852114 78.48882046 -35.17797118 76.72742366 -34.76831055 74.96582031 C-33.93255502 71.38402841 -33.0875597 67.8045902 -32.23583984 64.2265625 C-31.25051495 60.07879385 -30.29433142 55.92522417 -29.35354614 51.76715088 C-28.67815756 48.79060365 -27.98937653 45.81726891 -27.29711914 42.84460449 C-26.9796345 41.47238311 -26.66663809 40.09911377 -26.35864258 38.72473145 C-23.89713875 27.79188004 -15.32863628 0 0 0 Z " fill="#020202" transform="translate(66,53)"/>
<path d="M0 0 C5.28 0 10.56 0 16 0 C13.16594345 2.83405655 10.95031797 2.67620345 7 3 C4.65739357 2.7397104 2.3182429 2.42579972 0 2 C0 1.34 0 0.68 0 0 Z " fill="#D0282E" transform="translate(93,170)"/>
<path d="M0 0 C2.97 0.495 2.97 0.495 6 1 C6 1.66 6 2.32 6 3 C8.31 3 10.62 3 13 3 C13 3.33 13 3.66 13 4 C8.71 4 4.42 4 0 4 C0 2.68 0 1.36 0 0 Z " fill="#D3080F" transform="translate(87,169)"/>
</svg>
