<?xml version="1.0" encoding="UTF-8"?>
<svg version="1.1" xmlns="http://www.w3.org/2000/svg" width="192" height="40">
<path d="M0 0 C1.05960938 0.00676758 1.05960938 0.00676758 2.140625 0.01367188 C3.88545275 0.02546125 5.630237 0.04339676 7.375 0.0625 C5.91822975 4.92387801 3.88800608 9.16938203 1.49609375 13.61328125 C1.12396255 14.31269333 0.75183136 15.01210541 0.36842346 15.73271179 C-0.41357938 17.20033258 -1.19780149 18.66677282 -1.98413086 20.13208008 C-3.19174668 22.38291525 -4.39231672 24.63739867 -5.59179688 26.89257812 C-6.35376085 28.32052912 -7.1161167 29.7482711 -7.87890625 31.17578125 C-8.2393251 31.85175858 -8.59974396 32.5277359 -8.97108459 33.22419739 C-11.50829726 37.94579726 -11.50829726 37.94579726 -12.625 39.0625 C-14.18672745 39.14935603 -15.75229344 39.16952219 -17.31640625 39.16015625 C-18.26064453 39.15693359 -19.20488281 39.15371094 -20.17773438 39.15039062 C-21.17095703 39.14201172 -22.16417969 39.13363281 -23.1875 39.125 C-24.18458984 39.12048828 -25.18167969 39.11597656 -26.20898438 39.11132812 C-28.68104849 39.09950007 -31.15299518 39.08301849 -33.625 39.0625 C-40.94921875 25.87890625 -40.94921875 25.87890625 -42.27490234 23.48095703 C-43.19436891 21.83389812 -44.12758643 20.19445781 -45.07275391 18.56201172 C-45.75797119 17.36922607 -45.75797119 17.36922607 -46.45703125 16.15234375 C-46.87315674 15.43812256 -47.28928223 14.72390137 -47.71801758 13.98803711 C-48.625 12.0625 -48.625 12.0625 -48.625 9.0625 C-46.22885874 9.00824774 -43.83396147 8.96870973 -41.4375 8.9375 C-40.42719727 8.91236328 -40.42719727 8.91236328 -39.39648438 8.88671875 C-35.34767455 8.84721817 -32.18743778 9.07771324 -28.625 11.0625 C-27.04296875 12.7890625 -27.04296875 12.7890625 -25.8125 14.6875 C-25.39355469 15.31914062 -24.97460938 15.95078125 -24.54296875 16.6015625 C-24.24003906 17.08367188 -23.93710937 17.56578125 -23.625 18.0625 C-21.51149372 15.31119005 -19.6061064 12.49213821 -17.75 9.5625 C-12.83248931 2.1250709 -8.71673254 -0.10453646 0 0 Z " fill="#5D4196" transform="translate(48.625,-0.0625)"/>
<path d="M0 0 C2.61113 2.27135729 3.87141747 3.99935273 4.31713867 7.46801758 C4.39387412 10.42602881 4.3483871 13.35521089 4.25 16.3125 C4.23195312 17.33923828 4.21390625 18.36597656 4.1953125 19.42382812 C4.14831063 21.95017885 4.08262272 24.47460469 4 27 C1.36 27 -1.28 27 -4 27 C-4 26.34 -4 25.68 -4 25 C-4.55816406 25.32097656 -5.11632812 25.64195313 -5.69140625 25.97265625 C-9.70228026 27.75752912 -13.70511615 27.65915019 -18 27 C-21.12809283 24.99802059 -22.62325758 23.71400832 -23.43359375 20.02734375 C-23.65366257 16.45956138 -23.3091602 14.40190827 -21.125 11.5625 C-17.50500466 8.90073872 -15.34633091 8.88993265 -10.875 8.9375 C-9.77929688 8.94652344 -8.68359375 8.95554687 -7.5546875 8.96484375 C-6.71164063 8.97644531 -5.86859375 8.98804688 -5 9 C-6.72282308 5.67258477 -6.72282308 5.67258477 -10.25 5.25 C-13.75282177 5.01647855 -16.58682276 5.25076597 -20 6 C-21.4606285 3.35261084 -22 2.10551666 -22 -1 C-13.90619136 -3.27194629 -7.71886145 -4.22352796 0 0 Z M-14 16 C-13.67 17.32 -13.34 18.64 -13 20 C-10.64632287 20.6878236 -10.64632287 20.6878236 -8 21 C-7.01 20.34 -6.02 19.68 -5 19 C-5 17.68 -5 16.36 -5 15 C-8.77897651 13.9502843 -10.64919071 13.89023119 -14 16 Z " fill="#33357E" transform="translate(188,13)"/>
<path d="M0 0 C3.72021185 2.28285727 5.36171208 3.52263623 6.75 7.6875 C6.75 10.3275 6.75 12.9675 6.75 15.6875 C0.48 15.6875 -5.79 15.6875 -12.25 15.6875 C-8.14310427 20.80915138 -8.14310427 20.80915138 -4.93359375 20.9921875 C-4.19238281 20.85039063 -3.45117188 20.70859375 -2.6875 20.5625 C-1.94371094 20.43617187 -1.19992188 20.30984375 -0.43359375 20.1796875 C1.63653185 19.713076 3.69550231 19.21859464 5.75 18.6875 C5.75 21.3275 5.75 23.9675 5.75 26.6875 C0.74790078 29.69115288 -4.59920667 29.16535232 -10.25 28.6875 C-15.4395312 26.98910797 -18.250988 24.22886103 -21.25 19.6875 C-22.93992781 14.67992251 -22.39160933 10.26188548 -20.33984375 5.44921875 C-16.00467583 -1.55852582 -7.13693955 -2.88222559 0 0 Z M-11.0625 7 C-12.44183114 8.61619435 -12.44183114 8.61619435 -12.25 10.6875 C-8.95 10.6875 -5.65 10.6875 -2.25 10.6875 C-3.7489804 6.56575692 -3.7489804 6.56575692 -6.6875 5.75 C-9.2768425 5.42784284 -9.2768425 5.42784284 -11.0625 7 Z " fill="#33357E" transform="translate(110.25,11.3125)"/>
<path d="M0 0 C-0.66 2.31 -1.32 4.62 -2 7 C-6.29 6.67 -10.58 6.34 -15 6 C-15.33 6.66 -15.66 7.32 -16 8 C-15.33613281 8.10957031 -14.67226562 8.21914063 -13.98828125 8.33203125 C-4.9280906 9.9588976 -4.9280906 9.9588976 -1 13 C0.56935594 16.13871188 0.35201103 18.53855822 0 22 C-2.54137159 25.15954305 -4.14622659 26.71540886 -8 28 C-9.95566503 28.11979145 -11.91570766 28.17528496 -13.875 28.1875 C-14.90367187 28.20167969 -15.93234375 28.21585938 -16.9921875 28.23046875 C-20.05463488 27.99581369 -22.23248861 27.29184572 -25 26 C-24.01 22.535 -24.01 22.535 -23 19 C-22.175 19.165 -21.35 19.33 -20.5 19.5 C-16.58727683 20.05896045 -12.94816827 20.06807187 -9 20 C-12.79124008 18.00739475 -16.72546203 16.61919887 -20.7578125 15.1953125 C-23.42308881 13.77445091 -24.05979229 12.83655887 -25 10 C-24.9229176 5.68338574 -24.71787298 3.71787298 -21.625 0.625 C-15.03620128 -3.45378016 -7.00035371 -2.94751735 0 0 Z " fill="#33357E" transform="translate(144,12)"/>
<path d="M0 0 C3.3 0 6.6 0 10 0 C10.42152344 1.07121094 10.84304687 2.14242188 11.27734375 3.24609375 C11.83059319 4.64328302 12.38398602 6.04041551 12.9375 7.4375 C13.21529297 8.14455078 13.49308594 8.85160156 13.77929688 9.58007812 C14.96222034 13.04673881 14.96222034 13.04673881 17 16 C18.98 10.72 20.96 5.44 23 0 C25.97 0 28.94 0 32 0 C31.35990983 3.96473763 30.1301723 7.2944414 28.49609375 10.95703125 C28.00302734 12.06884766 27.50996094 13.18066406 27.00195312 14.32617188 C26.48568359 15.47666016 25.96941406 16.62714844 25.4375 17.8125 C24.91736328 18.98232422 24.39722656 20.15214844 23.86132812 21.35742188 C22.57872888 24.24032843 21.29147717 27.12106231 20 30 C17.36 30 14.72 30 12 30 C10.28387908 26.21289539 8.57510159 22.42259036 6.87304688 18.62915039 C6.29302383 17.33918304 5.71100511 16.05011109 5.12695312 14.76196289 C4.28769841 12.91003602 3.45567792 11.05500561 2.625 9.19921875 C2.12226562 8.08377686 1.61953125 6.96833496 1.1015625 5.8190918 C0 3 0 3 0 0 Z " fill="#33357E" transform="translate(59,10)"/>
<path d="M0 0 C2.97 0 5.94 0 9 0 C9 3.3 9 6.6 9 10 C11.31 10 13.62 10 16 10 C16 12.31 16 14.62 16 17 C13.69 17 11.38 17 9 17 C9.33 21.29 9.66 25.58 10 30 C12.94729537 31.15811388 12.94729537 31.15811388 16 31 C16.66 33.31 17.32 35.62 18 38 C13.1231798 39.62560673 8.7727893 39.80931686 4.125 37.6875 C2 36 2 36 0 33 C-0.1712914 30.45770403 -0.23242934 28.02810519 -0.1953125 25.48828125 C-0.1924826 24.76005661 -0.18965271 24.03183197 -0.18673706 23.28153992 C-0.17555257 20.95835863 -0.15045166 18.63556453 -0.125 16.3125 C-0.11496794 14.7363337 -0.10584248 13.16016135 -0.09765625 11.58398438 C-0.07561896 7.72250733 -0.04110141 3.86131929 0 0 Z " fill="#33357E" transform="translate(146,1)"/>
<path d="M0 0 C2.39614126 -0.05425226 4.79103853 -0.09379027 7.1875 -0.125 C8.19780273 -0.15013672 8.19780273 -0.15013672 9.22851562 -0.17578125 C14.10578885 -0.2233644 17.99230981 0.03196789 21.58203125 3.55078125 C22.19111328 4.42283203 22.19111328 4.42283203 22.8125 5.3125 C23.23144531 5.88613281 23.65039062 6.45976562 24.08203125 7.05078125 C25.33932626 9.72052683 25.44247147 11.0474334 25 14 C23.70124928 16.89251985 22.12035234 19.59001611 20.5 22.3125 C20.07074219 23.05306641 19.64148438 23.79363281 19.19921875 24.55664062 C18.14240987 26.37670036 17.07247813 28.18912919 16 30 C11.48238181 25.98058011 9.13659842 20.2504365 6.3125 15 C5.70599609 13.89398438 5.09949219 12.78796875 4.47460938 11.6484375 C3.90162109 10.58882812 3.32863281 9.52921875 2.73828125 8.4375 C2.21274658 7.46683594 1.68721191 6.49617187 1.14575195 5.49609375 C0 3 0 3 0 0 Z " fill="#289EB9" transform="translate(0,9)"/>
<path d="M0 0 C4.62 0 9.24 0 14 0 C12.61162949 4.16511153 11.4715959 7.24853758 9.3984375 10.9609375 C8.90859375 11.84394531 8.41875 12.72695312 7.9140625 13.63671875 C7.40617187 14.54035156 6.89828125 15.44398437 6.375 16.375 C5.859375 17.30183594 5.34375 18.22867187 4.8125 19.18359375 C3.54617189 21.45829425 2.27524075 23.73028792 1 26 C0.67 26 0.34 26 0 26 C0 17.42 0 8.84 0 0 Z " fill="#8E4B9A" transform="translate(42,0)"/>
<path d="M0 0 C0.33 0 0.66 0 1 0 C1 8.25 1 16.5 1 25 C-3.29 25 -7.58 25 -12 25 C-10.77160257 21.92900642 -9.59941369 19.07641988 -8.125 16.15234375 C-7.77953125 15.46462891 -7.4340625 14.77691406 -7.078125 14.06835938 C-6.72234375 13.36517578 -6.3665625 12.66199219 -6 11.9375 C-5.64421875 11.23044922 -5.2884375 10.52339844 -4.921875 9.79492188 C-4.24300193 8.44604162 -3.56336117 7.09754736 -2.8828125 5.74951172 C-1.91696658 3.8354487 -0.95680677 1.9185969 0 0 Z " fill="#393991" transform="translate(28,14)"/>
<path d="M0 0 C2.41696872 -0.05411124 4.83271787 -0.09372278 7.25 -0.125 C7.93191406 -0.14175781 8.61382812 -0.15851562 9.31640625 -0.17578125 C13.38537077 -0.21528576 15.24899321 0.12449661 19 2 C15.04 5.96 11.08 9.92 7 14 C0 4.66666667 0 4.66666667 0 0 Z " fill="#3064A3" transform="translate(0,9)"/>
<path d="M0 0 C1.32 0.66 2.64 1.32 4 2 C3.58685438 6.44926052 0.49538473 8.84100104 -2.5625 11.75 C-3.08263672 12.25660156 -3.60277344 12.76320313 -4.13867188 13.28515625 C-5.41910084 14.53034405 -6.70867554 15.76611502 -8 17 C-9.5625 15.75 -9.5625 15.75 -11 14 C-11.00656353 10.87575867 -9.79488491 9.7685881 -7.71484375 7.421875 C-6.34005859 6.09929688 -6.34005859 6.09929688 -4.9375 4.75 C-4.01839844 3.85796875 -3.09929688 2.9659375 -2.15234375 2.046875 C-1.44207031 1.37140625 -0.73179688 0.6959375 0 0 Z " fill="#2E72A9" transform="translate(18,11)"/>
<path d="M0 0 C0.33 0 0.66 0 1 0 C1 5.28 1 10.56 1 16 C-1.97 16 -4.94 16 -8 16 C-6.57250019 12.20950293 -4.83763458 8.72877544 -2.875 5.1875 C-2.33617187 4.21167969 -1.79734375 3.23585938 -1.2421875 2.23046875 C-0.83226562 1.49441406 -0.42234375 0.75835938 0 0 Z " fill="#303681" transform="translate(24,23)"/>
<path d="M0 0 C0.66 0.33 1.32 0.66 2 1 C1.58685438 5.44926052 -1.50461527 7.84100104 -4.5625 10.75 C-5.08263672 11.25660156 -5.60277344 11.76320313 -6.13867188 12.28515625 C-7.41910084 13.53034405 -8.70867554 14.76611502 -10 16 C-10.99 15.01 -11.98 14.02 -13 13 C-8.71 8.71 -4.42 4.42 0 0 Z " fill="#2B8BB2" transform="translate(22,15)"/>
<path d="M0 0 C3.63 0 7.26 0 11 0 C6.60546875 5.46875 6.60546875 5.46875 5 7 C4.01 7 3.02 7 2 7 C0.5393715 4.35261084 0 3.10551666 0 0 Z " fill="#344798" transform="translate(0,9)"/>
<path d="M0 0 C-1.40844718 3.21524305 -3.10344786 5.32183868 -5.625 7.75 C-6.57246094 8.67039062 -6.57246094 8.67039062 -7.5390625 9.609375 C-8.02117188 10.06828125 -8.50328125 10.5271875 -9 11 C-9.66 10.67 -10.32 10.34 -11 10 C-10.41861767 6.77788109 -9.49498087 5.06332259 -7.1875 2.75 C-6.68605469 2.22921875 -6.18460938 1.7084375 -5.66796875 1.171875 C-4 0 -4 0 0 0 Z " fill="#32569E" transform="translate(15,9)"/>
<path d="M0 0 C0.33 0.99 0.66 1.98 1 3 C-2.96 6.96 -6.92 10.92 -11 15 C-11.66 14.34 -12.32 13.68 -13 13 C-8.71 8.71 -4.42 4.42 0 0 Z " fill="#2D7FAD" transform="translate(21,13)"/>
<path d="M0 0 C0.33 0 0.66 0 1 0 C1 2.64 1 5.28 1 8 C-0.65 8 -2.3 8 -4 8 C-2.87548273 5.0280615 -1.77706209 2.66559313 0 0 Z " fill="#252B5A" transform="translate(20,31)"/>
<path d="M0 0 C0.33 0 0.66 0 1 0 C1 3.96 1 7.92 1 12 C0.34 12 -0.32 12 -1 12 C-1.2226746 10.56465159 -1.42761906 9.12654475 -1.625 7.6875 C-1.74101562 6.88699219 -1.85703125 6.08648437 -1.9765625 5.26171875 C-2 3 -2 3 0 0 Z " fill="#2B3070" transform="translate(22,27)"/>
<path d="M0 0 C1.98 0 3.96 0 6 0 C4.35 1.65 2.7 3.3 1 5 C0.67 3.35 0.34 1.7 0 0 Z " fill="#353A93" transform="translate(0,9)"/>
</svg>
